<?xml version="1.0" encoding="UTF-8" standalone="no"?>
<!DOCTYPE svg PUBLIC "-//W3C//DTD SVG 1.1//EN"
 "http://www.w3.org/Graphics/SVG/1.1/DTD/svg11.dtd">
<!-- Generated by graphviz version 2.40.1 (20161225.0304)
 -->
<!-- Title: G Pages: 1 -->
<svg width="1466pt" height="486pt"
 viewBox="0.00 0.00 1466.00 486.00" xmlns="http://www.w3.org/2000/svg" xmlns:xlink="http://www.w3.org/1999/xlink">
<g id="graph0" class="graph" transform="scale(1 1) rotate(0) translate(4 482)">
<title>G</title>
<polygon fill="#ffffff" stroke="transparent" points="-4,4 -4,-482 1462,-482 1462,4 -4,4"/>
<!-- A0 -->
<g id="node1" class="node">
<title>A0</title>
<polygon fill="none" stroke="#000000" points=".5,-444 .5,-476 971.5,-476 971.5,-444 .5,-444"/>
<text text-anchor="start" x="429.046" y="-457" font-family="Helvetica,sans-Serif" font-size="10.00" fill="#000000">prompt_pipeline:$NAME1</text>
<polygon fill="none" stroke="#000000" points=".5,-364 .5,-444 971.5,-444 971.5,-364 .5,-364"/>
<text text-anchor="start" x="441.9675" y="-425" font-family="Helvetica,sans-Serif" font-size="10.00" fill="#000000">prompt=$PROMPT,</text>
<text text-anchor="start" x="442.6575" y="-413" font-family="Helvetica,sans-Serif" font-size="10.00" fill="#000000">simple background,</text>
<text text-anchor="start" x="446.5475" y="-401" font-family="Helvetica,sans-Serif" font-size="10.00" fill="#000000">masterpiece, high</text>
<text text-anchor="start" x="444.6025" y="-389" font-family="Helvetica,sans-Serif" font-size="10.00" fill="#000000">score, great score,</text>
<text text-anchor="start" x="463.7735" y="-377" font-family="Helvetica,sans-Serif" font-size="10.00" fill="#000000">absurdres</text>
<polygon fill="none" stroke="#000000" points=".5,-332 .5,-364 971.5,-364 971.5,-332 .5,-332"/>
<text text-anchor="start" x="10.491" y="-345" font-family="Helvetica,sans-Serif" font-size="10.00" fill="#000000">negative_prompt=lowres, bad anatomy, bad hands, text, error, missing finger, extra digits, fewer digits, cropped, worst quality, low quality, low score, bad score, average score, signature, watermark, username, blurry</text>
</g>
<!-- A1 -->
<g id="node2" class="node">
<title>A1</title>
<polygon fill="none" stroke="#000000" points="1034,-446 1034,-478 1215,-478 1215,-446 1034,-446"/>
<text text-anchor="start" x="1073.375" y="-459" font-family="Helvetica,sans-Serif" font-size="10.00" fill="#000000">auto_pipeline:$NAME1</text>
<polygon fill="none" stroke="#000000" points="1034,-414 1034,-446 1215,-446 1215,-414 1034,-414"/>
<text text-anchor="start" x="1098.795" y="-427" font-family="Helvetica,sans-Serif" font-size="10.00" fill="#000000">width=1024</text>
<polygon fill="none" stroke="#000000" points="1034,-382 1034,-414 1215,-414 1215,-382 1034,-382"/>
<text text-anchor="start" x="1096.8455" y="-395" font-family="Helvetica,sans-Serif" font-size="10.00" fill="#000000">height=1024</text>
<polygon fill="none" stroke="#000000" points="1034,-350 1034,-382 1215,-382 1215,-350 1034,-350"/>
<text text-anchor="start" x="1106.573" y="-363" font-family="Helvetica,sans-Serif" font-size="10.00" fill="#000000">count=4</text>
<polygon fill="none" stroke="#000000" points="1034,-318 1034,-350 1215,-350 1215,-318 1034,-318"/>
<text text-anchor="start" x="1068.2295" y="-331" font-family="Helvetica,sans-Serif" font-size="10.00" fill="#000000">num_inference_steps=28</text>
<polygon fill="none" stroke="#000000" points="1034,-286 1034,-318 1215,-318 1215,-286 1034,-286"/>
<text text-anchor="start" x="1084.0665" y="-299" font-family="Helvetica,sans-Serif" font-size="10.00" fill="#000000">guidance_scale=5</text>
<polygon fill="none" stroke="#000000" points="1034,-254 1034,-286 1215,-286 1215,-254 1034,-254"/>
<text text-anchor="start" x="1048.7795" y="-267" font-family="Helvetica,sans-Serif" font-size="10.00" fill="#000000">controlnet_conditioning_scale=0.7</text>
<polygon fill="none" stroke="#000000" points="1034,-222 1034,-254 1215,-254 1215,-222 1034,-222"/>
<text text-anchor="start" x="1043.506" y="-235" font-family="Helvetica,sans-Serif" font-size="10.00" fill="#000000">controlnet=output/scribble&#45;$IMG.png</text>
</g>
<!-- A0&#45;&gt;A1 -->
<g id="edge1" class="edge">
<title>A0&#45;&gt;A1</title>
<path fill="none" stroke="#000000" d="M971.0633,-362.9343C989.58,-361.3683 1007.061,-359.8899 1023.1255,-358.5313"/>
<polygon fill="#000000" stroke="#000000" points="1033.4742,-357.6561 1023.889,-362.9829 1028.492,-358.0775 1023.5097,-358.4989 1023.5097,-358.4989 1023.5097,-358.4989 1028.492,-358.0775 1023.1305,-354.0149 1033.4742,-357.6561 1033.4742,-357.6561"/>
</g>
<!-- A4 -->
<g id="node5" class="node">
<title>A4</title>
<polygon fill="none" stroke="#000000" points="1277.5,-256 1277.5,-288 1458.5,-288 1458.5,-256 1277.5,-256"/>
<text text-anchor="start" x="1316.875" y="-269" font-family="Helvetica,sans-Serif" font-size="10.00" fill="#000000">auto_pipeline:$NAME2</text>
<polygon fill="none" stroke="#000000" points="1277.5,-224 1277.5,-256 1458.5,-256 1458.5,-224 1277.5,-224"/>
<text text-anchor="start" x="1342.295" y="-237" font-family="Helvetica,sans-Serif" font-size="10.00" fill="#000000">width=1024</text>
<polygon fill="none" stroke="#000000" points="1277.5,-192 1277.5,-224 1458.5,-224 1458.5,-192 1277.5,-192"/>
<text text-anchor="start" x="1340.3455" y="-205" font-family="Helvetica,sans-Serif" font-size="10.00" fill="#000000">height=1024</text>
<polygon fill="none" stroke="#000000" points="1277.5,-160 1277.5,-192 1458.5,-192 1458.5,-160 1277.5,-160"/>
<text text-anchor="start" x="1350.073" y="-173" font-family="Helvetica,sans-Serif" font-size="10.00" fill="#000000">count=4</text>
<polygon fill="none" stroke="#000000" points="1277.5,-128 1277.5,-160 1458.5,-160 1458.5,-128 1277.5,-128"/>
<text text-anchor="start" x="1311.7295" y="-141" font-family="Helvetica,sans-Serif" font-size="10.00" fill="#000000">num_inference_steps=20</text>
<polygon fill="none" stroke="#000000" points="1277.5,-96 1277.5,-128 1458.5,-128 1458.5,-96 1277.5,-96"/>
<text text-anchor="start" x="1327.5665" y="-109" font-family="Helvetica,sans-Serif" font-size="10.00" fill="#000000">guidance_scale=7</text>
<polygon fill="none" stroke="#000000" points="1277.5,-64 1277.5,-96 1458.5,-96 1458.5,-64 1277.5,-64"/>
<text text-anchor="start" x="1340.0705" y="-77" font-family="Helvetica,sans-Serif" font-size="10.00" fill="#000000">strength=0.7</text>
<polygon fill="none" stroke="#000000" points="1277.5,-32 1277.5,-64 1458.5,-64 1458.5,-32 1277.5,-32"/>
<text text-anchor="start" x="1296.4485" y="-45" font-family="Helvetica,sans-Serif" font-size="10.00" fill="#000000">controlnet_conditioning_scale=1</text>
<polygon fill="none" stroke="#000000" points="1277.5,0 1277.5,-32 1458.5,-32 1458.5,0 1277.5,0"/>
<text text-anchor="start" x="1287.006" y="-13" font-family="Helvetica,sans-Serif" font-size="10.00" fill="#000000">controlnet=output/scribble&#45;$IMG.png</text>
</g>
<!-- A1&#45;&gt;A4 -->
<g id="edge3" class="edge">
<title>A1&#45;&gt;A4</title>
<path fill="none" stroke="#000000" d="M1214.6704,-273.2932C1232.4175,-258.2793 1251.1088,-242.4665 1269.094,-227.2511"/>
<polygon fill="#000000" stroke="#000000" points="1276.7539,-220.7709 1272.0258,-230.6651 1272.9366,-224.0002 1269.1194,-227.2296 1269.1194,-227.2296 1269.1194,-227.2296 1272.9366,-224.0002 1266.2129,-223.7941 1276.7539,-220.7709 1276.7539,-220.7709"/>
</g>
<!-- A2 -->
<g id="node3" class="node">
<title>A2</title>
<polygon fill="none" stroke="#000000" points="533.2453,-314 437.7547,-314 437.7547,-278 533.2453,-278 533.2453,-314"/>
<text text-anchor="middle" x="485.5" y="-293" font-family="Helvetica,sans-Serif" font-size="10.00" fill="#000000">load_pipeline:1</text>
</g>
<!-- A2&#45;&gt;A1 -->
<g id="edge2" class="edge">
<title>A2&#45;&gt;A1</title>
<path fill="none" stroke="#000000" d="M533.2103,-296.7705C620.4082,-298.5967 811.2472,-304.5286 971,-323 987.9108,-324.9553 1005.7828,-327.5876 1023.1141,-330.4442"/>
<polygon fill="#000000" stroke="#000000" points="1033.2446,-332.1486 1022.6366,-334.927 1028.3139,-331.319 1023.3832,-330.4894 1023.3832,-330.4894 1023.3832,-330.4894 1028.3139,-331.319 1024.1299,-326.0517 1033.2446,-332.1486 1033.2446,-332.1486"/>
</g>
<!-- A3 -->
<g id="node4" class="node">
<title>A3</title>
<polygon fill="none" stroke="#000000" points="1021,-172 1021,-204 1227,-204 1227,-172 1021,-172"/>
<text text-anchor="start" x="1067.046" y="-185" font-family="Helvetica,sans-Serif" font-size="10.00" fill="#000000">prompt_pipeline:$NAME2</text>
<polygon fill="none" stroke="#000000" points="1021,-116 1021,-172 1227,-172 1227,-116 1021,-116"/>
<text text-anchor="start" x="1086.633" y="-153" font-family="Helvetica,sans-Serif" font-size="10.00" fill="#000000">prompt=pixel art,</text>
<text text-anchor="start" x="1099.0005" y="-141" font-family="Helvetica,sans-Serif" font-size="10.00" fill="#000000">pixel world,</text>
<text text-anchor="start" x="1099.8335" y="-129" font-family="Helvetica,sans-Serif" font-size="10.00" fill="#000000">$PROMPT</text>
<polygon fill="none" stroke="#000000" points="1021,-84 1021,-116 1227,-116 1227,-84 1021,-84"/>
<text text-anchor="start" x="1030.7785" y="-97" font-family="Helvetica,sans-Serif" font-size="10.00" fill="#000000">negative_prompt=low_quality, bad_quality</text>
</g>
<!-- A3&#45;&gt;A4 -->
<g id="edge4" class="edge">
<title>A3&#45;&gt;A4</title>
<path fill="none" stroke="#000000" d="M1227.2659,-144C1240.2554,-144 1253.5322,-144 1266.4863,-144"/>
<polygon fill="#000000" stroke="#000000" points="1276.7944,-144 1266.7945,-148.5001 1271.7944,-144 1266.7944,-144.0001 1266.7944,-144.0001 1266.7944,-144.0001 1271.7944,-144 1266.7944,-139.5001 1276.7944,-144 1276.7944,-144"/>
</g>
<!-- A5 -->
<g id="node6" class="node">
<title>A5</title>
<polygon fill="none" stroke="#000000" points="1171.7453,-66 1076.2547,-66 1076.2547,-30 1171.7453,-30 1171.7453,-66"/>
<text text-anchor="middle" x="1124" y="-45" font-family="Helvetica,sans-Serif" font-size="10.00" fill="#000000">load_pipeline:2</text>
</g>
<!-- A5&#45;&gt;A4 -->
<g id="edge5" class="edge">
<title>A5&#45;&gt;A4</title>
<path fill="none" stroke="#000000" d="M1171.7917,-58.4138C1189.3885,-62.7977 1209.3293,-68.4205 1227,-75 1240.3463,-79.9694 1254.1163,-85.7957 1267.5771,-91.92"/>
<polygon fill="#000000" stroke="#000000" points="1276.8378,-96.2006 1265.8724,-96.0895 1272.2992,-94.1027 1267.7606,-92.0047 1267.7606,-92.0047 1267.7606,-92.0047 1272.2992,-94.1027 1269.6487,-87.92 1276.8378,-96.2006 1276.8378,-96.2006"/>
</g>
</g>
</svg>
