<?xml version="1.0" encoding="UTF-8" standalone="no"?>
<!DOCTYPE svg PUBLIC "-//W3C//DTD SVG 1.1//EN"
 "http://www.w3.org/Graphics/SVG/1.1/DTD/svg11.dtd">
<!-- Generated by graphviz version 2.40.1 (20161225.0304)
 -->
<!-- Title: G Pages: 1 -->
<svg width="312pt" height="136pt"
 viewBox="0.00 0.00 312.00 136.00" xmlns="http://www.w3.org/2000/svg" xmlns:xlink="http://www.w3.org/1999/xlink">
<g id="graph0" class="graph" transform="scale(1 1) rotate(0) translate(4 132)">
<title>G</title>
<polygon fill="#ffffff" stroke="transparent" points="-4,4 -4,-132 308,-132 308,4 -4,4"/>
<!-- A0 -->
<g id="node1" class="node">
<title>A0</title>
<polygon fill="none" stroke="#000000" points="0,-64 0,-96 154,-96 154,-64 0,-64"/>
<text text-anchor="start" x="32.549" y="-77" font-family="Helvetica,sans-Serif" font-size="10.00" fill="#000000">raw_image_pipeline</text>
<polygon fill="none" stroke="#000000" points="0,-32 0,-64 154,-64 154,-32 0,-32"/>
<text text-anchor="start" x="9.6125" y="-45" font-family="Helvetica,sans-Serif" font-size="10.00" fill="#000000">image=/image/1024x1024.png</text>
</g>
<!-- A1 -->
<g id="node2" class="node">
<title>A1</title>
<polygon fill="none" stroke="#000000" points="204,-96 204,-128 304,-128 304,-96 204,-96"/>
<text text-anchor="start" x="220.6615" y="-109" font-family="Helvetica,sans-Serif" font-size="10.00" fill="#000000">resize_pipeline</text>
<polygon fill="none" stroke="#000000" points="204,-64 204,-96 304,-96 304,-64 204,-64"/>
<text text-anchor="start" x="231.0745" y="-77" font-family="Helvetica,sans-Serif" font-size="10.00" fill="#000000">width=128</text>
<polygon fill="none" stroke="#000000" points="204,-32 204,-64 304,-64 304,-32 204,-32"/>
<text text-anchor="start" x="229.125" y="-45" font-family="Helvetica,sans-Serif" font-size="10.00" fill="#000000">height=128</text>
<polygon fill="none" stroke="#000000" points="204,0 204,-32 304,-32 304,0 204,0"/>
<text text-anchor="start" x="213.852" y="-13" font-family="Helvetica,sans-Serif" font-size="10.00" fill="#000000">resample=nearest</text>
</g>
<!-- A0&#45;&gt;A1 -->
<g id="edge1" class="edge">
<title>A0&#45;&gt;A1</title>
<path fill="none" stroke="#000000" d="M154.1199,-64C167.425,-64 181.0791,-64 193.8521,-64"/>
<polygon fill="#000000" stroke="#000000" points="203.8835,-64 193.8835,-68.5001 198.8835,-64 193.8835,-64.0001 193.8835,-64.0001 193.8835,-64.0001 198.8835,-64 193.8834,-59.5001 203.8835,-64 203.8835,-64"/>
</g>
</g>
</svg>
