<?xml version="1.0" encoding="UTF-8" standalone="no"?>
<!DOCTYPE svg PUBLIC "-//W3C//DTD SVG 1.1//EN"
 "http://www.w3.org/Graphics/SVG/1.1/DTD/svg11.dtd">
<!-- Generated by graphviz version 2.40.1 (20161225.0304)
 -->
<!-- Title: G Pages: 1 -->
<svg width="233pt" height="506pt"
 viewBox="0.00 0.00 233.00 506.00" xmlns="http://www.w3.org/2000/svg" xmlns:xlink="http://www.w3.org/1999/xlink">
<g id="graph0" class="graph" transform="scale(1 1) rotate(0) translate(4 502)">
<title>G</title>
<polygon fill="#ffffff" stroke="transparent" points="-4,4 -4,-502 229,-502 229,4 -4,4"/>
<!-- A0 -->
<g id="node1" class="node">
<title>A0</title>
<polygon fill="none" stroke="#000000" points="20.5,-192 20.5,-224 205.5,-224 205.5,-192 20.5,-192"/>
<text text-anchor="start" x="79.3775" y="-205" font-family="Helvetica,sans-Serif" font-size="10.00" fill="#000000">load_pipeline:1</text>
<polygon fill="none" stroke="#000000" points="20.5,-160 20.5,-192 205.5,-192 205.5,-160 20.5,-160"/>
<text text-anchor="start" x="84.52" y="-173" font-family="Helvetica,sans-Serif" font-size="10.00" fill="#000000">type=txt2img</text>
<polygon fill="none" stroke="#000000" points="20.5,-128 20.5,-160 205.5,-160 205.5,-128 20.5,-128"/>
<text text-anchor="start" x="30.0715" y="-141" font-family="Helvetica,sans-Serif" font-size="10.00" fill="#000000">model=cagliostrolab/animagine&#45;xl&#45;4.0</text>
<polygon fill="none" stroke="#000000" points="20.5,-96 20.5,-128 205.5,-128 205.5,-96 20.5,-96"/>
<text text-anchor="start" x="70.908" y="-109" font-family="Helvetica,sans-Serif" font-size="10.00" fill="#000000">controlnet=scribble</text>
<polygon fill="none" stroke="#000000" points="20.5,-64 20.5,-96 205.5,-96 205.5,-64 20.5,-64"/>
<text text-anchor="start" x="72.8525" y="-77" font-family="Helvetica,sans-Serif" font-size="10.00" fill="#000000">scheduler=euler&#45;a</text>
<polygon fill="none" stroke="#000000" points="20.5,-32 20.5,-64 205.5,-64 205.5,-32 20.5,-32"/>
<text text-anchor="start" x="84.794" y="-45" font-family="Helvetica,sans-Serif" font-size="10.00" fill="#000000">device=cuda</text>
<polygon fill="none" stroke="#000000" points="20.5,0 20.5,-32 205.5,-32 205.5,0 20.5,0"/>
<text text-anchor="start" x="68.9535" y="-13" font-family="Helvetica,sans-Serif" font-size="10.00" fill="#000000">torch_dtype=float16</text>
</g>
<!-- A1 -->
<g id="node2" class="node">
<title>A1</title>
<polygon fill="none" stroke="#000000" points=".5,-466 .5,-498 225.5,-498 225.5,-466 .5,-466"/>
<text text-anchor="start" x="79.3775" y="-479" font-family="Helvetica,sans-Serif" font-size="10.00" fill="#000000">load_pipeline:2</text>
<polygon fill="none" stroke="#000000" points=".5,-434 .5,-466 225.5,-466 225.5,-434 .5,-434"/>
<text text-anchor="start" x="81.7455" y="-447" font-family="Helvetica,sans-Serif" font-size="10.00" fill="#000000">type=img2img</text>
<polygon fill="none" stroke="#000000" points=".5,-402 .5,-434 225.5,-434 225.5,-402 .5,-402"/>
<text text-anchor="start" x="10.3575" y="-415" font-family="Helvetica,sans-Serif" font-size="10.00" fill="#000000">model=Anomaly&#45;Games&#45;Inc/aziibpixelmix&#45;json</text>
<polygon fill="none" stroke="#000000" points=".5,-370 .5,-402 225.5,-402 225.5,-370 .5,-370"/>
<text text-anchor="start" x="70.908" y="-383" font-family="Helvetica,sans-Serif" font-size="10.00" fill="#000000">controlnet=scribble</text>
<polygon fill="none" stroke="#000000" points=".5,-338 .5,-370 225.5,-370 225.5,-338 .5,-338"/>
<text text-anchor="start" x="88.134" y="-351" font-family="Helvetica,sans-Serif" font-size="10.00" fill="#000000">clip_skip=2</text>
<polygon fill="none" stroke="#000000" points=".5,-306 .5,-338 225.5,-338 225.5,-306 .5,-306"/>
<text text-anchor="start" x="48.9655" y="-319" font-family="Helvetica,sans-Serif" font-size="10.00" fill="#000000">scheduler=dpmpp&#45;2m&#45;karras</text>
<polygon fill="none" stroke="#000000" points=".5,-274 .5,-306 225.5,-306 225.5,-274 .5,-274"/>
<text text-anchor="start" x="84.794" y="-287" font-family="Helvetica,sans-Serif" font-size="10.00" fill="#000000">device=cuda</text>
<polygon fill="none" stroke="#000000" points=".5,-242 .5,-274 225.5,-274 225.5,-242 .5,-242"/>
<text text-anchor="start" x="68.9535" y="-255" font-family="Helvetica,sans-Serif" font-size="10.00" fill="#000000">torch_dtype=float16</text>
</g>
</g>
</svg>
