<?xml version="1.0" encoding="UTF-8" standalone="no"?>
<!DOCTYPE svg PUBLIC "-//W3C//DTD SVG 1.1//EN"
 "http://www.w3.org/Graphics/SVG/1.1/DTD/svg11.dtd">
<!-- Generated by graphviz version 2.40.1 (20161225.0304)
 -->
<!-- Title: G Pages: 1 -->
<svg width="901pt" height="104pt"
 viewBox="0.00 0.00 900.90 104.00" xmlns="http://www.w3.org/2000/svg" xmlns:xlink="http://www.w3.org/1999/xlink">
<g id="graph0" class="graph" transform="scale(1 1) rotate(0) translate(4 100)">
<title>G</title>
<polygon fill="#ffffff" stroke="transparent" points="-4,4 -4,-100 896.905,-100 896.905,4 -4,4"/>
<!-- A0 -->
<g id="node1" class="node">
<title>A0</title>
<polygon fill="none" stroke="#000000" points="0,-48 0,-80 146,-80 146,-48 0,-48"/>
<text text-anchor="start" x="9.937" y="-61" font-family="Helvetica,sans-Serif" font-size="10.00" fill="#000000">raw_image_pipeline:$NAME</text>
<polygon fill="none" stroke="#000000" points="0,-16 0,-48 146,-48 146,-16 0,-16"/>
<text text-anchor="start" x="23.9645" y="-29" font-family="Helvetica,sans-Serif" font-size="10.00" fill="#000000">image=img/$IMG.jpeg</text>
</g>
<!-- A1 -->
<g id="node2" class="node">
<title>A1</title>
<polygon fill="none" stroke="#000000" points="196.5,-64 196.5,-96 319.5,-96 319.5,-64 196.5,-64"/>
<text text-anchor="start" x="206.0495" y="-77" font-family="Helvetica,sans-Serif" font-size="10.00" fill="#000000">resize_pipeline:$NAME</text>
<polygon fill="none" stroke="#000000" points="196.5,-32 196.5,-64 319.5,-64 319.5,-32 196.5,-32"/>
<text text-anchor="start" x="232.295" y="-45" font-family="Helvetica,sans-Serif" font-size="10.00" fill="#000000">width=2048</text>
<polygon fill="none" stroke="#000000" points="196.5,0 196.5,-32 319.5,-32 319.5,0 196.5,0"/>
<text text-anchor="start" x="230.3455" y="-13" font-family="Helvetica,sans-Serif" font-size="10.00" fill="#000000">height=2048</text>
</g>
<!-- A0&#45;&gt;A1 -->
<g id="edge1" class="edge">
<title>A0&#45;&gt;A1</title>
<path fill="none" stroke="#000000" d="M146.1843,-48C159.2036,-48 172.7526,-48 185.732,-48"/>
<polygon fill="#000000" stroke="#000000" points="195.9981,-48 185.9981,-52.5001 190.9981,-48 185.9981,-48.0001 185.9981,-48.0001 185.9981,-48.0001 190.9981,-48 185.998,-43.5001 195.9981,-48 195.9981,-48"/>
</g>
<!-- A2 -->
<g id="node3" class="node">
<title>A2</title>
<polygon fill="none" stroke="#000000" points="369,-64 369,-96 485,-96 485,-64 369,-64"/>
<text text-anchor="start" x="378.659" y="-77" font-family="Helvetica,sans-Serif" font-size="10.00" fill="#000000">crop_pipeline:$NAME</text>
<polygon fill="none" stroke="#000000" points="369,-32 369,-64 485,-64 485,-32 369,-32"/>
<text text-anchor="start" x="401.295" y="-45" font-family="Helvetica,sans-Serif" font-size="10.00" fill="#000000">width=1024</text>
<polygon fill="none" stroke="#000000" points="369,0 369,-32 485,-32 485,0 369,0"/>
<text text-anchor="start" x="399.3455" y="-13" font-family="Helvetica,sans-Serif" font-size="10.00" fill="#000000">height=1024</text>
</g>
<!-- A1&#45;&gt;A2 -->
<g id="edge2" class="edge">
<title>A1&#45;&gt;A2</title>
<path fill="none" stroke="#000000" d="M319.1729,-48C331.9449,-48 345.4738,-48 358.4737,-48"/>
<polygon fill="#000000" stroke="#000000" points="368.7613,-48 358.7613,-52.5001 363.7613,-48 358.7613,-48.0001 358.7613,-48.0001 358.7613,-48.0001 363.7613,-48 358.7613,-43.5001 368.7613,-48 368.7613,-48"/>
</g>
<!-- A4 -->
<g id="node5" class="node">
<title>A4</title>
<polygon fill="none" stroke="#000000" points="691.8575,-66 535.0475,-66 535.0475,-30 691.8575,-30 691.8575,-66"/>
<text text-anchor="middle" x="613.4525" y="-45" font-family="Helvetica,sans-Serif" font-size="10.00" fill="#000000">invert_color_pipeline:$NAME</text>
</g>
<!-- A2&#45;&gt;A4 -->
<g id="edge3" class="edge">
<title>A2&#45;&gt;A4</title>
<path fill="none" stroke="#000000" d="M485.2278,-48C497.7443,-48 511.2454,-48 524.6254,-48"/>
<polygon fill="#000000" stroke="#000000" points="534.8153,-48 524.8153,-52.5001 529.8153,-48 524.8153,-48.0001 524.8153,-48.0001 524.8153,-48.0001 529.8153,-48 524.8152,-43.5001 534.8153,-48 534.8153,-48"/>
</g>
<!-- A3 -->
<g id="node4" class="node">
<title>A3</title>
<polygon fill="none" stroke="#000000" points="742.405,-48 742.405,-80 893.405,-80 893.405,-48 742.405,-48"/>
<text text-anchor="start" x="752.3365" y="-61" font-family="Helvetica,sans-Serif" font-size="10.00" fill="#000000">copy_image_pipeline:$NAME</text>
<polygon fill="none" stroke="#000000" points="742.405,-16 742.405,-48 893.405,-48 893.405,-16 742.405,-16"/>
<text text-anchor="start" x="761.645" y="-29" font-family="Helvetica,sans-Serif" font-size="10.00" fill="#000000">name=scribble&#45;$IMG.png</text>
</g>
<!-- A4&#45;&gt;A3 -->
<g id="edge4" class="edge">
<title>A4&#45;&gt;A3</title>
<path fill="none" stroke="#000000" d="M692.0141,-48C705.0697,-48 718.6665,-48 731.8844,-48"/>
<polygon fill="#000000" stroke="#000000" points="741.9032,-48 731.9033,-52.5001 736.9032,-48 731.9032,-48.0001 731.9032,-48.0001 731.9032,-48.0001 736.9032,-48 731.9032,-43.5001 741.9032,-48 741.9032,-48"/>
</g>
</g>
</svg>
